<?xml version="1.0" standalone="no"?>
<!DOCTYPE svg PUBLIC "-//W3C//DTD SVG 20010904//EN"
 "http://www.w3.org/TR/2001/REC-SVG-20010904/DTD/svg10.dtd">
<svg version="1.0" xmlns="http://www.w3.org/2000/svg"
 width="512.000000pt" height="512.000000pt" viewBox="0 0 512.000000 512.000000"
 preserveAspectRatio="xMidYMid meet">
<metadata>
Created by potrace 1.11, written by Peter Selinger 2001-2013
</metadata>
<g transform="translate(0.000000,512.000000) scale(0.100000,-0.100000)"
fill="#000000" stroke="none">
<path d="M3016 4762 c-2 -4 -76 -7 -163 -6 -87 0 -161 -1 -165 -3 -4 -2 3 -21
15 -41 13 -20 30 -52 38 -69 12 -28 42 -56 37 -35 -2 13 14 42 24 42 6 0 4 -7
-3 -16 -7 -9 -14 -25 -16 -35 -2 -11 58 -126 134 -257 75 -130 141 -247 147
-259 6 -13 14 -23 19 -23 4 0 7 -7 7 -15 0 -8 5 -15 12 -15 6 0 8 3 5 7 -4 3
1 15 10 26 10 10 16 20 13 21 -2 0 11 27 29 59 31 54 32 61 20 85 -8 15 -16
29 -19 32 -3 3 -13 21 -23 40 -41 80 -46 83 -142 86 -119 4 -121 14 -3 14 l96
0 28 48 c15 26 39 67 52 91 l24 45 -22 38 c-12 21 -16 38 -10 38 5 0 18 -16
27 -35 16 -34 19 -35 72 -36 31 -1 62 -1 69 0 6 1 12 -3 12 -9 0 -6 -22 -9
-60 -7 -46 3 -63 0 -73 -12 -19 -22 -97 -161 -97 -172 0 -5 12 -28 27 -52 15
-23 37 -60 49 -82 l22 -40 108 0 108 0 51 89 51 89 -48 81 c-26 45 -49 85 -51
89 -1 4 -19 9 -40 10 -20 1 -37 6 -37 10 0 5 12 8 28 6 33 -2 64 10 56 22 -3
5 0 9 5 9 6 0 11 5 11 11 0 6 10 25 22 42 13 18 23 35 23 39 0 3 3 9 7 13 12
12 2 -23 -11 -39 -7 -9 -10 -16 -5 -16 5 0 0 -7 -10 -15 -11 -8 -16 -15 -12
-15 4 0 0 -13 -10 -28 -18 -31 -18 -30 63 -169 l25 -43 104 0 105 0 31 50 c17
28 35 50 40 50 5 0 7 4 4 9 -3 5 1 14 9 21 8 7 12 17 8 23 -4 6 -1 7 6 3 9 -6
8 -13 -5 -27 -9 -10 -14 -19 -10 -19 4 0 -1 -12 -12 -27 -11 -16 -27 -42 -36
-60 -16 -31 -15 -33 14 -85 17 -29 35 -60 40 -68 6 -8 15 -25 22 -37 9 -20 20
-23 67 -24 31 -1 61 0 66 1 6 1 6 -2 2 -6 -4 -4 -33 -8 -64 -9 l-57 -1 -52
-89 -53 -89 22 -41 c12 -22 24 -42 27 -45 3 -3 6 -12 8 -20 2 -8 10 -22 18
-31 20 -23 17 -31 -6 -17 -11 7 -20 16 -20 20 0 4 -16 33 -35 66 l-34 59 -103
-2 c-123 -3 -118 -2 -118 -18 0 -7 -12 -29 -26 -48 -14 -19 -30 -44 -35 -56
-5 -13 -13 -23 -19 -23 -9 0 24 74 40 90 11 11 30 50 30 61 0 6 -22 50 -49 98
l-50 86 -103 -1 c-123 -2 -118 -1 -118 -15 0 -6 -13 -30 -30 -54 -16 -24 -30
-49 -30 -55 0 -6 -6 -13 -13 -16 -25 -9 -15 -50 35 -136 l50 -88 108 0 c77 0
110 4 113 13 4 9 7 9 15 -1 7 -10 77 -12 320 -11 l312 2 27 26 27 26 -17 -27
-17 -27 101 0 c74 0 99 3 95 12 -3 7 -9 20 -12 30 -4 9 -10 17 -15 17 -5 0 -9
4 -9 9 0 6 -24 49 -53 98 -30 48 -64 108 -78 133 -13 25 -27 47 -31 48 -5 2
-8 9 -8 16 0 8 -8 24 -19 37 -10 13 -20 29 -21 34 -2 6 -9 19 -16 30 -7 11
-25 43 -41 72 -43 79 -125 217 -132 223 -3 3 -13 19 -21 35 -31 63 -71 113
-97 122 -16 5 -90 9 -165 8 -76 0 -138 3 -138 8 0 4 -6 5 -12 0 -17 -10 -117
-11 -145 -1 -12 4 -25 3 -28 -2 -6 -9 -61 -8 -71 3 -4 3 -15 2 -25 -4 -11 -5
-19 -7 -19 -4 0 3 -10 1 -21 -6 -15 -8 -19 -8 -15 0 5 7 -1 10 -16 7 -13 -2
-33 0 -45 5 -12 5 -24 5 -27 1z m-170 -41 c-11 -12 -15 -25 -11 -33 6 -10 5
-10 -5 -1 -11 10 -10 16 5 33 10 11 20 20 23 20 3 0 -3 -9 -12 -19z m301 -25
c-3 -8 -2 -17 4 -20 5 -2 4 -3 -2 -2 -15 3 -21 36 -7 36 6 0 8 -6 5 -14z m918
-495 c-8 -7 -45 -9 -50 -1 -2 3 9 6 25 6 17 0 27 -2 25 -5z m125 -221 c0 -5
-2 -10 -4 -10 -3 0 -8 5 -11 10 -3 6 -1 10 4 10 6 0 11 -4 11 -10z m-33 -47
c-8 -10 -16 -22 -16 -28 0 -5 -5 -11 -12 -14 -7 -2 -4 9 7 28 10 17 23 31 28
31 5 0 2 -8 -7 -17z"/>
<path d="M1318 4723 c-15 -9 -29 -24 -32 -32 -3 -9 -19 -38 -35 -66 -17 -27
-36 -61 -41 -75 -6 -13 -14 -27 -18 -30 -4 -3 -14 -19 -23 -35 -9 -17 -46 -81
-82 -144 -37 -62 -67 -115 -67 -117 0 -2 -16 -28 -35 -58 -19 -30 -35 -58 -35
-61 0 -3 -16 -31 -35 -61 -19 -30 -35 -56 -35 -59 0 -2 -29 -54 -65 -115 -69
-118 -76 -149 -50 -201 9 -16 13 -34 10 -40 -4 -5 -1 -8 7 -7 7 2 12 -3 11 -9
-2 -7 1 -13 6 -13 13 0 51 -81 44 -93 -3 -6 -1 -7 5 -3 14 8 36 -30 26 -46 -4
-7 -3 -8 4 -4 7 4 12 2 12 -4 0 -6 7 -18 15 -27 8 -8 13 -19 10 -24 -4 -5 -2
-9 2 -9 13 0 45 -59 38 -70 -4 -6 -1 -9 7 -8 7 2 12 -3 11 -9 -2 -7 2 -13 7
-13 6 0 10 -6 10 -14 0 -8 4 -16 9 -18 5 -1 11 -10 13 -18 2 -8 9 -21 16 -28
7 -8 10 -17 7 -22 -3 -4 2 -11 11 -14 9 -4 14 -13 10 -22 -3 -8 -2 -12 4 -9 6
3 10 -1 10 -9 0 -9 3 -16 8 -16 9 0 38 -61 34 -73 -1 -5 1 -6 6 -3 5 3 21 -18
36 -47 69 -130 126 -224 152 -252 15 -16 27 -33 26 -37 -1 -5 2 -8 8 -8 5 0
10 3 10 8 0 4 15 7 34 7 19 0 34 -4 33 -9 -3 -17 36 -19 48 -3 10 14 13 14 27
-3 9 -10 14 -21 11 -23 -3 -3 3 -4 14 -3 12 2 17 10 15 23 -2 17 1 20 25 15
25 -5 25 -6 8 -13 -18 -7 -18 -8 -2 -8 10 -1 20 5 23 12 6 16 34 19 31 3 -1
-5 7 -11 18 -13 11 -1 14 0 8 3 -27 12 -11 19 41 18 56 -1 80 -9 71 -24 -3 -5
0 -12 6 -16 7 -4 9 -3 5 4 -3 5 0 13 6 15 10 4 10 6 1 6 -7 1 -13 6 -13 11 0
7 6 7 19 0 14 -7 21 -6 24 3 3 7 6 4 6 -6 1 -10 6 -15 11 -12 6 4 8 10 6 14
-6 10 25 8 42 -3 7 -4 12 -2 12 4 0 7 6 8 18 1 13 -7 23 -6 31 2 10 9 12 9 9
-2 -2 -9 6 -16 17 -18 11 -1 14 0 8 3 -22 10 -14 22 10 16 28 -7 39 -23 26
-38 -7 -8 -6 -15 2 -20 7 -4 9 -3 5 4 -3 6 -2 13 3 16 5 3 7 14 4 25 -4 16 0
18 23 13 25 -5 26 -6 9 -13 -18 -7 -18 -8 -2 -8 10 -1 20 5 23 13 3 8 12 12
20 9 12 -4 12 -8 -3 -20 -16 -13 -16 -13 5 -3 12 6 22 14 22 18 0 10 62 8 78
-2 7 -4 12 -2 12 4 0 7 6 8 18 1 13 -7 23 -6 31 2 10 9 12 9 9 -2 -2 -9 6 -16
17 -18 11 -1 14 0 8 3 -22 10 -14 21 11 17 14 -3 27 -11 30 -19 6 -16 -10 -19
-17 -4 -3 6 -4 5 -3 -2 5 -23 31 -14 28 9 -3 23 7 24 60 7 12 -3 18 -2 15 3
-3 5 7 8 22 5 16 -2 32 1 35 7 5 8 17 6 39 -5 l32 -15 -25 20 c-14 11 -20 21
-13 21 6 0 15 9 18 20 4 11 11 17 17 14 8 -5 9 -1 5 10 -5 11 -3 15 5 10 8 -5
9 -2 5 9 -7 19 4 22 20 6 6 -6 9 -19 6 -28 -4 -14 -3 -14 6 -1 6 9 7 18 1 24
-14 14 -12 28 3 20 6 -4 9 -4 5 1 -4 4 -3 14 3 22 16 18 4 16 -16 -3 -9 -9
-18 -14 -21 -11 -3 2 3 13 13 23 10 9 18 20 19 23 3 17 21 52 27 52 19 -2 21
0 7 9 -13 8 -12 10 4 10 12 0 16 5 12 15 -3 8 -1 15 4 15 9 0 15 -22 11 -43
-1 -5 3 -6 8 -2 10 6 5 31 -11 52 -6 7 -3 15 9 22 10 6 15 11 11 11 -4 0 -4
10 1 23 13 32 -1 46 -104 104 -200 112 -241 132 -261 127 -12 -3 -32 -27 -46
-52 l-25 -47 -312 -3 c-303 -2 -313 -2 -342 19 -16 11 -27 24 -24 29 3 5 1 10
-4 12 -5 1 -11 10 -13 18 -2 8 -11 23 -21 34 -10 12 -20 31 -23 43 -4 13 -10
23 -16 23 -5 0 -6 5 -3 10 3 6 2 10 -3 10 -5 0 -12 8 -16 18 -3 9 -15 31 -26
47 -11 17 -24 40 -29 52 -5 11 -15 24 -20 28 -6 3 -11 13 -11 21 0 9 -7 22
-16 31 -8 9 -13 22 -10 30 3 8 2 12 -3 8 -5 -3 -21 18 -35 47 -22 45 -24 52
-10 62 13 10 13 13 -1 31 -16 19 -16 19 -5 -2 8 -18 8 -23 -3 -23 -18 0 -15
36 5 59 8 9 21 32 29 49 8 18 17 32 20 32 4 0 9 9 12 20 3 11 10 20 17 20 6 0
9 -4 5 -9 -3 -5 -1 -12 4 -15 5 -4 12 -2 15 3 4 5 2 12 -4 16 -6 4 -7 11 -4
17 4 7 2 8 -4 4 -7 -4 -12 -3 -12 2 0 5 9 12 20 15 11 3 20 11 20 19 0 10 -3
9 -10 -2 -19 -30 -9 -1 13 39 13 23 27 38 32 34 4 -5 5 0 2 10 -4 9 -2 17 4
17 6 0 7 5 3 12 -5 7 -3 8 6 3 10 -6 12 -4 7 9 -4 9 -3 14 2 11 5 -3 13 0 17
6 4 8 9 7 16 -2 8 -11 9 -11 5 1 -2 8 -10 14 -16 12 -6 -1 -11 2 -11 8 0 5 4
10 9 10 5 0 13 10 17 23 4 12 19 40 34 62 15 22 28 44 28 50 1 14 22 19 22 5
0 -6 -5 -8 -12 -4 -7 4 -8 3 -4 -5 4 -6 2 -18 -4 -26 -9 -11 -9 -15 -1 -15 6
0 11 4 11 10 0 5 8 7 18 4 14 -5 14 -4 3 4 -12 8 -12 14 -3 25 7 7 8 18 4 22
-4 5 6 1 22 -9 16 -10 26 -14 23 -10 -3 5 1 14 8 21 10 9 16 5 29 -20 8 -18
16 -25 16 -16 0 8 -5 20 -12 27 -13 13 -12 13 39 16 17 1 29 -2 27 -6 -3 -4 0
-8 5 -8 6 0 11 4 11 8 0 4 14 8 30 7 17 0 30 -4 30 -8 0 -5 5 -5 12 -1 19 12
58 11 48 -1 -6 -7 -2 -11 9 -11 10 0 17 5 15 11 -5 12 66 13 85 1 6 -4 11 -3
11 1 0 5 14 9 30 8 17 0 30 -3 30 -7 0 -5 5 -8 11 -8 5 0 8 4 5 8 -3 5 1 9 9
9 8 0 12 -4 9 -9 -3 -4 2 -8 10 -8 9 0 16 4 16 8 0 4 20 7 45 7 43 -1 47 -4
81 -53 21 -33 42 -52 54 -52 10 0 24 -8 29 -17 6 -10 11 -12 11 -5 0 19 20 14
21 -5 0 -14 3 -12 10 5 5 13 13 20 19 17 5 -3 10 -1 10 4 0 14 -13 14 -28 -1
-9 -9 -12 -9 -12 1 0 11 -3 11 -15 1 -10 -9 -15 -9 -15 -1 0 10 13 15 33 12 4
0 7 3 7 8 0 5 9 11 20 14 11 3 18 1 15 -3 -9 -14 16 -23 28 -11 9 9 8 11 -3 6
-11 -4 -16 1 -16 15 0 24 9 26 26 5 7 -8 20 -14 29 -14 13 1 13 2 -2 6 -15 4
-16 7 -5 21 12 15 11 16 -4 3 -10 -7 -18 -9 -18 -4 0 5 15 17 34 26 30 14 36
14 46 2 15 -18 31 -10 23 11 -5 13 -7 13 -14 2 -7 -10 -9 -9 -9 5 0 20 11 22
29 5 12 -11 13 -10 7 6 -5 15 -2 17 15 13 25 -7 49 1 49 16 0 7 -4 7 -12 -1
-14 -14 -28 -16 -28 -3 0 5 11 12 25 15 14 4 25 11 25 16 0 5 6 7 14 4 8 -3
17 0 22 7 4 7 3 10 -4 5 -7 -4 -10 1 -9 14 1 11 5 20 11 20 5 0 1 9 -9 20 -10
11 -15 20 -11 20 4 0 0 7 -8 16 -9 8 -16 22 -16 30 0 8 -3 14 -7 14 -5 0 -19
24 -33 53 -14 28 -27 54 -30 57 -3 3 -16 26 -30 51 -43 83 -7 79 -632 79 -498
-1 -556 -2 -580 -17z m332 -439 c0 -8 -19 -13 -24 -6 -3 5 1 9 9 9 8 0 15 -2
15 -3z m-190 -1580 c0 -2 -7 -4 -15 -4 -8 0 -15 4 -15 10 0 5 7 7 15 4 8 -4
15 -8 15 -10z m61 -6 c11 -21 11 -22 -4 -9 -10 7 -17 17 -17 22 0 15 9 10 21
-13z"/>
<path d="M3541 4375 c-13 -15 -101 -166 -101 -172 0 -2 17 -34 38 -70 20 -35
43 -75 50 -88 12 -24 16 -24 119 -22 l106 2 48 80 c54 89 57 105 30 143 -10
15 -31 51 -46 80 -15 28 -32 53 -39 53 -59 7 -199 3 -205 -6z"/>
<path d="M2635 4299 c-4 -6 -4 -13 -1 -16 3 -4 6 -1 6 6 0 8 6 11 16 7 8 -3
12 -2 9 4 -8 13 -22 13 -30 -1z"/>
<path d="M2580 4285 c0 -2 6 -8 13 -14 10 -8 14 -7 14 2 0 8 -6 14 -14 14 -7
0 -13 -1 -13 -2z"/>
<path d="M1706 4268 c3 -5 10 -6 15 -3 13 9 11 12 -6 12 -8 0 -12 -4 -9 -9z"/>
<path d="M1850 4271 c0 -5 5 -13 10 -16 6 -3 10 -2 10 4 0 5 -4 13 -10 16 -5
3 -10 2 -10 -4z"/>
<path d="M1935 4269 c-5 -7 -4 -10 3 -5 6 3 13 2 16 -3 3 -4 17 -8 31 -8 14 0
25 0 23 1 -2 1 -12 8 -22 16 -13 10 -17 10 -12 3 9 -16 -6 -17 -21 -2 -8 8
-13 7 -18 -2z"/>
<path d="M2174 4267 c-4 -6 -4 -9 1 -5 4 4 14 3 22 -4 7 -6 15 -9 18 -7 2 3
-4 10 -15 17 -15 9 -21 9 -26 -1z"/>
<path d="M1735 4260 c-3 -5 -1 -10 4 -10 6 0 11 5 11 10 0 6 -2 10 -4 10 -3 0
-8 -4 -11 -10z"/>
<path d="M1780 4261 c0 -5 8 -8 18 -7 9 2 22 -4 28 -12 9 -12 13 -12 19 -2 5
8 4 11 -3 6 -5 -3 -12 -1 -14 6 -5 13 -48 22 -48 9z"/>
<path d="M2020 4261 c0 -5 8 -8 18 -7 9 2 21 -2 25 -8 6 -7 7 -6 5 3 -4 16
-48 26 -48 12z"/>
<path d="M2130 4260 c0 -5 5 -10 11 -10 5 0 7 5 4 10 -3 6 -8 10 -11 10 -2 0
-4 -4 -4 -10z"/>
<path d="M2086 4243 c-6 -14 -5 -15 5 -6 7 7 10 15 7 18 -3 3 -9 -2 -12 -12z"/>
<path d="M2500 4250 c-8 -5 -11 -13 -6 -17 5 -4 11 -2 13 5 3 6 10 9 15 6 7
-4 8 -2 4 4 -9 14 -7 14 -26 2z"/>
<path d="M1611 4247 c2 -1 13 -9 24 -17 19 -14 19 -14 6 3 -7 9 -18 17 -24 17
-6 0 -8 -1 -6 -3z"/>
<path d="M2170 4239 c0 -5 5 -7 10 -4 6 3 10 8 10 11 0 2 -4 4 -10 4 -5 0 -10
-5 -10 -11z"/>
<path d="M1542 4188 c-7 -7 -12 -21 -11 -32 0 -19 1 -18 10 4 6 13 15 28 22
32 7 4 8 8 2 8 -6 0 -16 -5 -23 -12z"/>
<path d="M1513 4125 c0 -8 4 -15 9 -15 4 0 8 4 8 9 0 6 -4 12 -8 15 -5 3 -9
-1 -9 -9z"/>
<path d="M1477 4055 c-4 -8 -3 -16 1 -19 4 -3 9 4 9 15 2 23 -3 25 -10 4z"/>
<path d="M1421 3976 c-8 -10 -9 -16 -1 -21 6 -4 9 -1 8 7 -2 8 6 13 19 12 12
0 20 3 17 8 -8 13 -30 9 -43 -6z"/>
<path d="M1353 3858 c-20 -26 -23 -37 -12 -44 7 -4 9 -3 5 4 -3 6 1 18 10 27
9 9 14 18 12 21 -3 2 -10 -1 -15 -8z"/>
<path d="M1296 3771 c-4 -5 3 -7 14 -4 23 6 26 13 6 13 -8 0 -17 -4 -20 -9z"/>
<path d="M3215 3658 c-22 -13 -37 -31 -57 -68 -11 -20 -101 -177 -198 -345
-10 -16 -77 -133 -150 -260 -72 -126 -142 -246 -153 -265 -27 -44 -27 -74 1
-127 12 -24 19 -43 15 -43 -4 0 1 -6 12 -13 11 -9 15 -19 10 -27 -5 -8 -4 -11
2 -7 5 3 20 -15 33 -41 13 -26 28 -50 34 -54 7 -5 7 -8 1 -8 -5 0 -5 -4 2 -8
6 -4 13 -14 15 -21 2 -8 11 -22 20 -32 10 -10 15 -26 12 -34 -4 -10 -2 -15 7
-13 8 2 13 -4 13 -14 -1 -10 3 -15 9 -11 6 4 8 0 4 -11 -4 -9 -3 -15 2 -12 10
7 33 -42 26 -55 -3 -5 1 -6 9 -3 9 4 16 1 16 -6 0 -7 23 -50 50 -97 28 -47 47
-90 43 -96 -3 -7 -3 -9 2 -5 11 10 47 -50 39 -64 -4 -6 -3 -8 3 -5 5 3 20 -16
34 -43 13 -27 27 -50 32 -50 4 0 7 -7 7 -15 0 -8 4 -15 9 -15 5 0 12 -7 15
-16 6 -15 4 -15 -11 -4 -10 8 -5 1 10 -15 16 -15 33 -41 39 -56 5 -16 14 -29
20 -29 5 0 6 -5 2 -12 -4 -6 -3 -8 4 -4 6 3 16 1 24 -6 16 -16 38 -21 38 -10
0 5 10 8 23 6 12 -1 25 -3 30 -3 11 -1 4 -24 -13 -39 -13 -11 -11 -11 7 -2 13
6 22 14 22 18 -3 19 2 33 11 27 5 -3 8 -11 6 -18 -1 -7 -1 -9 1 -4 3 4 11 7
19 7 8 0 14 6 14 13 1 6 7 1 14 -12 11 -20 14 -21 19 -7 5 11 3 15 -5 10 -7
-4 -8 -3 -4 4 9 14 38 3 30 -12 -3 -6 1 -3 9 6 8 10 17 15 20 11 4 -3 2 -12
-4 -20 -19 -23 2 -14 23 10 15 17 18 18 14 5 -3 -10 -1 -18 4 -18 5 0 10 12
12 28 2 20 8 27 23 25 19 -1 19 -1 2 12 -18 13 -18 13 0 18 15 4 15 5 1 6 -14
1 -15 6 -8 31 5 17 6 30 2 30 -11 0 -8 154 3 162 7 5 7 8 0 8 -6 0 -9 27 -9
62 2 64 -15 103 -44 103 -7 0 -23 18 -35 40 -12 22 -25 42 -28 45 -5 4 -14 25
-21 48 -1 4 -10 16 -20 26 -9 10 -15 23 -12 28 3 4 1 8 -4 8 -9 0 -37 50 -34
63 1 4 -3 7 -10 7 -9 0 -9 3 0 12 15 15 15 28 1 28 -5 0 -7 -4 -4 -10 3 -5 2
-10 -2 -10 -5 0 -14 9 -21 20 -10 17 -9 23 9 41 14 14 24 17 28 11 7 -12 29
-11 50 2 11 7 13 5 7 -9 -6 -16 -4 -16 10 -4 15 12 16 11 9 -11 -7 -24 -7 -24
8 -5 8 11 13 24 9 30 -3 5 1 5 9 -2 9 -8 20 -9 29 -3 20 13 30 12 30 -1 0 -5
-4 -7 -10 -4 -6 3 -7 -1 -4 -9 5 -14 8 -14 21 -1 9 10 32 15 62 14 27 -1 53 1
59 5 5 3 12 0 15 -6 3 -10 8 -10 21 1 16 13 17 12 11 -15 l-6 -29 15 30 c8 17
15 25 15 19 2 -19 50 -36 69 -24 15 10 14 10 -3 6 -24 -7 -53 8 -36 18 6 4 11
4 11 -1 0 -10 52 -9 68 1 7 4 12 2 12 -3 0 -12 28 -10 49 3 11 7 13 5 7 -10
-6 -15 -5 -16 5 -7 9 9 17 9 33 1 20 -11 20 -10 6 8 -13 17 -13 18 0 7 10 -8
21 -9 30 -3 20 13 30 12 30 -1 0 -5 -6 -7 -12 -3 -7 4 -4 -2 6 -14 21 -24 36
-31 17 -8 -15 18 8 27 65 24 23 0 46 2 52 5 5 4 12 1 15 -5 3 -10 8 -10 21 1
16 13 17 12 11 -15 l-6 -29 15 30 c8 17 15 25 15 19 2 -28 81 -39 81 -12 0 6
-6 6 -14 -2 -10 -8 -21 -8 -32 -2 -11 6 -13 11 -5 16 6 4 11 2 11 -4 0 -7 6
-8 19 0 14 7 22 7 26 0 4 -6 11 -8 16 -5 5 4 12 -1 15 -10 6 -15 -22 -83 -57
-135 -9 -14 -27 -45 -41 -70 -57 -102 -84 -140 -99 -140 -9 0 -20 -8 -25 -17
-4 -10 -9 -107 -9 -215 -2 -195 -2 -197 22 -217 12 -12 23 -17 23 -13 0 5 7 9
15 9 8 0 15 -7 15 -14 0 -8 -4 -11 -10 -8 -5 3 -10 2 -10 -4 0 -5 9 -9 20 -8
12 1 18 7 16 13 -3 7 2 15 10 18 9 3 12 1 9 -4 -3 -6 -1 -10 4 -10 6 0 11 6
11 13 1 6 7 1 14 -12 11 -19 14 -21 19 -7 8 20 24 21 24 1 0 -8 -4 -15 -9 -15
-4 0 -8 -5 -8 -11 0 -8 4 -8 15 1 8 6 14 15 13 18 -2 20 3 32 12 27 5 -3 7
-13 4 -23 -4 -10 -2 -13 3 -7 16 20 52 35 58 25 3 -6 4 -14 1 -18 -3 -5 1 -9
10 -9 10 0 12 7 8 20 -4 13 -2 17 5 13 6 -4 11 -3 11 2 0 5 11 14 25 20 14 6
24 15 23 20 -5 14 65 121 75 115 5 -3 7 0 5 8 -6 17 28 89 42 89 6 0 9 6 8 13
-2 6 2 11 8 10 7 -1 10 6 7 17 -3 12 1 22 11 26 9 3 14 10 11 15 -3 4 13 27
35 50 22 23 40 49 38 58 -4 24 25 82 39 77 7 -3 10 1 7 8 -3 8 0 17 5 21 6 3
9 10 6 15 -13 21 18 19 36 -2 19 -21 19 -21 -1 10 -21 32 -16 43 10 20 8 -7 6
-3 -3 9 -11 12 -14 24 -9 27 6 3 13 0 16 -6 3 -7 3 -3 0 10 -3 12 -1 22 5 22
6 0 11 -5 11 -12 0 -6 3 -8 6 -5 4 4 1 14 -7 23 -12 15 -11 16 11 10 21 -6 22
-5 8 4 -15 9 -16 14 -6 30 7 10 16 16 22 13 5 -4 7 1 3 10 -4 11 -1 17 8 17 8
0 15 5 15 11 0 5 -5 7 -12 3 -7 -4 -8 -3 -4 5 4 6 18 9 32 7 13 -3 24 0 24 6
0 5 -7 8 -15 5 -24 -10 -27 11 -3 27 15 11 18 16 8 16 -9 0 -11 3 -5 8 6 4 16
19 23 35 9 22 17 27 38 23 24 -5 25 -4 12 17 -12 19 -12 27 3 57 10 19 18 29
19 22 0 -7 5 -10 11 -7 7 5 5 11 -5 18 -8 7 -17 23 -18 37 -2 14 -15 43 -29
65 -29 45 -53 87 -54 95 0 3 -9 19 -19 35 -11 17 -30 47 -43 67 -12 21 -23 40
-23 43 0 3 -20 39 -46 80 -25 43 -42 81 -38 88 4 6 4 9 -1 5 -14 -13 -55 55
-43 70 8 9 6 11 -8 6 -10 -4 -16 -4 -12 1 4 4 0 14 -8 22 -8 9 -13 22 -10 30
3 8 1 11 -4 8 -8 -5 -59 81 -61 102 0 5 -7 12 -15 16 -8 4 -14 14 -14 22 0 7
-4 15 -9 17 -5 2 -11 10 -13 18 -2 8 -6 17 -9 20 -3 3 -25 39 -49 82 -25 44
-53 81 -67 87 -13 6 -81 11 -152 11 -107 0 -131 -3 -142 -17 -11 -12 -14 -61
-16 -202 -1 -192 6 -241 37 -241 25 0 32 -12 13 -25 -14 -11 -14 -12 5 -11 12
1 21 -3 21 -8 -1 -5 3 -12 8 -15 5 -3 20 -26 34 -51 13 -25 27 -47 30 -50 3
-3 12 -20 20 -37 8 -18 17 -33 21 -33 5 0 8 -7 8 -15 0 -8 5 -15 11 -15 5 0 8
-4 5 -9 -3 -5 1 -14 9 -21 20 -17 19 -47 -2 -58 -23 -11 -934 -9 -952 2 -10 7
-12 5 -6 -5 5 -8 -1 -5 -13 5 -26 22 -28 30 -7 22 8 -3 15 -1 15 3 0 5 -4 11
-10 13 -5 2 0 14 11 28 15 19 18 20 10 4 -6 -12 -6 -26 -1 -34 7 -11 9 -8 9
10 1 14 1 35 1 47 0 16 5 20 19 16 10 -3 21 0 25 5 3 5 0 9 -7 8 -6 0 -12 4
-12 9 0 6 4 9 8 7 5 -1 7 3 4 10 -7 20 25 69 42 63 11 -4 11 -2 2 8 -9 11 -7
17 5 28 10 8 18 12 20 9 1 -3 6 -1 11 4 5 5 3 6 -4 2 -8 -4 -13 -1 -13 8 0 19
11 21 28 4 8 -8 12 -9 12 -1 0 6 -6 13 -12 15 -16 6 5 58 23 58 7 0 5 -8 -5
-19 -13 -14 -14 -21 -5 -27 8 -4 10 -3 5 4 -4 7 -4 12 1 12 26 0 74 149 49
151 -6 0 -2 4 9 9 l20 9 -20 0 c-17 1 -17 3 -5 11 8 5 11 10 5 10 -6 0 -10 33
-10 77 0 43 5 81 10 85 6 5 6 8 -2 8 -8 0 -9 9 -3 30 6 21 5 28 -2 24 -6 -4
-8 1 -4 14 5 14 0 28 -13 41 -19 19 -33 21 -148 21 -78 0 -136 -5 -148 -12z
m1705 -1108 c0 -5 -2 -10 -4 -10 -3 0 -8 5 -11 10 -3 6 -1 10 4 10 6 0 11 -4
11 -10z m-288 -482 c-7 -7 -12 -8 -12 -2 0 14 12 26 19 19 2 -3 -1 -11 -7 -17z"/>
<path d="M643 3558 c-10 -12 -29 -45 -61 -104 -6 -11 -31 -53 -56 -95 -25 -42
-46 -81 -46 -87 0 -7 -4 -12 -9 -12 -5 0 -16 -17 -25 -37 -9 -21 -34 -67 -56
-102 -22 -34 -40 -65 -40 -67 0 -3 -16 -30 -35 -60 -19 -30 -35 -57 -35 -59 0
-3 -12 -24 -26 -46 -14 -23 -23 -43 -20 -46 3 -3 -3 -13 -13 -22 -30 -27 -87
-144 -85 -176 1 -35 18 -80 33 -90 6 -3 11 -13 11 -21 0 -26 57 -87 72 -78 7
4 8 3 4 -5 -4 -6 -12 -8 -18 -5 -12 8 -1 -13 64 -123 26 -45 48 -86 48 -92 0
-6 3 -11 8 -11 4 0 20 -25 36 -55 28 -54 46 -70 46 -40 0 8 5 15 10 15 6 0 10
7 10 15 0 8 5 15 10 15 6 0 10 7 10 15 0 9 10 29 22 45 l22 30 -24 42 c-13 24
-31 56 -39 72 -36 68 -47 74 -122 73 -39 -1 -68 2 -66 7 2 5 34 9 72 8 77 -1
74 -3 128 93 53 95 51 88 23 133 -14 23 -26 46 -26 52 0 5 -4 10 -10 10 -5 0
-10 6 -10 13 0 6 -9 23 -19 37 -18 22 -27 25 -95 26 -42 0 -79 3 -82 7 -3 3
31 5 75 5 73 0 83 2 101 23 10 13 19 27 20 31 0 4 16 34 36 67 l36 61 -32 56
c-17 31 -35 68 -40 82 -11 31 -12 32 55 -71 22 -34 44 -61 48 -59 4 1 51 2
105 2 l97 0 24 50 c13 28 27 50 31 50 4 0 13 14 20 30 7 17 15 29 17 26 5 -5
-24 -65 -42 -86 -8 -8 -13 -19 -13 -23 0 -4 -5 -21 -12 -37 -11 -26 -10 -34 6
-57 11 -16 21 -32 24 -38 3 -5 18 -31 33 -57 28 -47 45 -55 95 -49 6 1 12 -2
12 -8 0 -5 -13 -8 -29 -6 -40 5 -54 -8 -106 -100 -51 -89 -52 -73 14 -190 37
-64 48 -76 71 -74 43 3 103 -2 93 -9 -6 -4 -37 -6 -68 -6 -44 2 -58 -2 -62
-15 -4 -9 -17 -33 -30 -54 -13 -21 -33 -54 -44 -74 l-20 -36 23 -46 c12 -25
29 -52 36 -59 6 -8 10 -18 7 -23 -4 -5 -2 -9 3 -9 5 0 12 -9 15 -20 9 -34 -8
-14 -59 69 l-48 80 -104 -2 c-92 -2 -105 -4 -114 -22 -6 -11 -14 -22 -17 -25
-4 -3 -15 -22 -26 -42 -11 -21 -23 -38 -27 -38 -5 0 -8 -6 -8 -14 0 -8 -4 -16
-9 -18 -5 -1 13 -41 40 -88 27 -47 53 -92 58 -100 5 -9 29 -18 57 -21 45 -5
46 -6 12 -7 -41 -2 -47 -14 -23 -48 8 -12 11 -24 8 -28 -3 -3 -2 -6 4 -6 6 0
16 -13 23 -30 22 -53 35 -55 61 -8 64 118 87 161 124 224 22 38 44 77 50 86 5
9 33 54 60 100 71 119 95 161 102 181 3 9 8 17 12 17 4 0 13 16 21 35 8 19 18
35 24 35 5 0 6 3 3 7 -4 3 -1 13 5 21 7 8 34 51 59 96 41 71 46 84 35 101 -7
11 -30 52 -51 90 -21 39 -45 76 -52 83 -7 7 -13 18 -13 23 0 6 -27 55 -60 110
-33 55 -60 102 -60 104 0 9 -64 110 -74 117 -7 5 -7 8 -1 8 6 0 5 4 -2 8 -6 4
-24 32 -40 62 -35 66 -83 152 -133 238 -28 48 -39 60 -47 50z m-39 -156 c3 -5
-1 -9 -9 -9 -8 0 -12 4 -9 9 3 4 7 8 9 8 2 0 6 -4 9 -8z m121 -10 c-3 -3 -11
0 -18 7 -9 10 -8 11 6 5 10 -3 15 -9 12 -12z m265 -566 c-7 -7 -13 -7 -20 0
-6 6 -3 10 10 10 13 0 16 -4 10 -10z m68 -1 c3 -3 -4 -4 -16 -2 -12 2 -24 6
-28 10 -4 3 4 4 16 2 12 -2 25 -7 28 -10z m2 -369 c0 -2 -11 -6 -25 -8 -14 -3
-25 -1 -25 3 0 5 11 9 25 9 14 0 25 -2 25 -4z m-351 -572 c2 -2 -10 -4 -27 -4
-18 0 -32 5 -32 10 0 9 47 4 59 -6z"/>
<path d="M3556 3322 c-3 -5 1 -9 9 -9 8 0 12 4 9 9 -3 4 -7 8 -9 8 -2 0 -6 -4
-9 -8z"/>
<path d="M3531 3234 c0 -11 3 -14 6 -6 3 7 2 16 -1 19 -3 4 -6 -2 -5 -13z"/>
<path d="M3516 3207 c3 -10 9 -15 12 -12 3 3 0 11 -7 18 -10 9 -11 8 -5 -6z"/>
<path d="M3490 3140 c0 -5 5 -10 11 -10 5 0 7 5 4 10 -3 6 -8 10 -11 10 -2 0
-4 -4 -4 -10z"/>
<path d="M3445 3100 c-3 -6 1 -7 9 -4 18 7 21 14 7 14 -6 0 -13 -4 -16 -10z"/>
<path d="M3430 3070 c0 -5 5 -10 11 -10 5 0 7 5 4 10 -3 6 -8 10 -11 10 -2 0
-4 -4 -4 -10z"/>
<path d="M3380 3038 c-9 -20 -9 -21 2 -7 7 9 20 18 28 22 12 4 12 6 -2 6 -10
1 -22 -9 -28 -21z"/>
<path d="M3395 3019 c-4 -6 -5 -12 -2 -15 2 -3 7 2 10 11 7 17 1 20 -8 4z"/>
<path d="M548 3012 c-9 -2 -22 -17 -29 -33 -6 -17 -17 -36 -23 -43 -22 -24
-67 -116 -57 -116 6 0 11 -4 11 -10 0 -5 21 -43 46 -85 l45 -75 103 0 103 0
37 59 c20 32 36 63 36 68 0 4 9 19 19 32 17 22 17 27 4 45 -8 12 -33 52 -56
91 l-42 70 -91 0 c-50 0 -97 -1 -106 -3z"/>
<path d="M2680 2980 c-9 -6 -10 -10 -3 -10 6 0 15 5 18 10 8 12 4 12 -15 0z"/>
<path d="M2630 2909 c0 -5 -5 -7 -12 -3 -7 4 -8 3 -4 -5 6 -9 11 -9 22 0 17
14 18 19 4 19 -5 0 -10 -5 -10 -11z"/>
<path d="M2595 2880 c3 -5 8 -10 11 -10 2 0 4 5 4 10 0 6 -5 10 -11 10 -5 0
-7 -4 -4 -10z"/>
<path d="M2546 2763 c-6 -14 -5 -15 5 -6 7 7 10 15 7 18 -3 3 -9 -2 -12 -12z"/>
<path d="M2515 2740 c-3 -5 -1 -10 4 -10 6 0 11 5 11 10 0 6 -2 10 -4 10 -3 0
-8 -4 -11 -10z"/>
<path d="M2459 2703 c-13 -16 -12 -17 4 -4 20 15 23 2 5 -19 -7 -8 -4 -7 7 2
13 13 16 21 9 28 -8 8 -15 5 -25 -7z"/>
<path d="M1674 2694 c-18 -14 -18 -15 4 -4 12 6 22 13 22 15 0 8 -5 6 -26 -11z"/>
<path d="M1715 2700 c3 -6 1 -10 -6 -10 -7 0 -10 -3 -6 -6 3 -3 13 -2 22 4 16
8 16 9 1 15 -10 4 -15 3 -11 -3z"/>
<path d="M1834 2688 l-19 -23 23 19 c21 18 27 26 19 26 -2 0 -12 -10 -23 -22z"/>
<path d="M2119 2693 c-11 -15 -11 -16 0 -6 11 9 18 7 33 -10 l19 -22 -17 28
c-19 32 -18 32 -35 10z"/>
<path d="M2350 2702 c0 -6 9 -12 20 -15 11 -3 20 -3 20 -1 0 2 -9 8 -20 14
-11 6 -20 7 -20 2z"/>
<path d="M1370 2691 c0 -7 -5 -9 -12 -5 -7 5 -8 3 -3 -5 5 -9 10 -10 18 -2 6
6 8 14 4 18 -4 3 -7 1 -7 -6z"/>
<path d="M1393 2672 c-1 -22 0 -24 9 -8 6 10 6 22 2 26 -5 5 -10 -3 -11 -18z"/>
<path d="M1872 2691 c-11 -7 -10 -9 3 -14 9 -4 13 -3 10 3 -3 6 -2 10 4 10 5
0 12 -5 14 -10 3 -6 4 -5 3 2 -3 16 -18 20 -34 9z"/>
<path d="M2192 2691 c-11 -7 -10 -9 3 -14 9 -4 13 -3 10 3 -3 6 -2 10 4 10 5
0 12 -5 14 -10 3 -6 4 -5 3 2 -3 16 -18 20 -34 9z"/>
<path d="M2415 2690 c-3 -6 1 -7 9 -4 18 7 21 14 7 14 -6 0 -13 -4 -16 -10z"/>
<path d="M1786 2682 c-3 -5 1 -9 9 -9 8 0 12 4 9 9 -3 4 -7 8 -9 8 -2 0 -6 -4
-9 -8z"/>
<path d="M2076 2658 c3 -5 10 -6 15 -3 13 9 11 12 -6 12 -8 0 -12 -4 -9 -9z"/>
<path d="M523 2605 c-9 -16 -19 -32 -22 -35 -3 -3 -15 -23 -26 -45 -11 -22
-25 -46 -32 -53 -9 -10 -1 -32 41 -105 l54 -92 107 -1 c89 0 108 2 113 15 3 9
23 42 44 74 20 33 40 67 43 77 4 12 -12 50 -46 107 l-51 88 -105 0 -105 0 -15
-30z"/>
<path d="M4947 2599 c7 -7 15 -10 18 -7 3 3 -2 9 -12 12 -14 6 -15 5 -6 -5z"/>
<path d="M4930 2585 c0 -5 5 -17 10 -25 5 -8 10 -10 10 -5 0 6 -5 17 -10 25
-5 8 -10 11 -10 5z"/>
<path d="M1336 2552 c-20 -8 -41 -27 -52 -48 -10 -19 -22 -34 -25 -34 -4 0
-10 -12 -14 -27 -3 -15 -10 -30 -14 -33 -4 -3 -25 -36 -47 -74 -21 -38 -51
-90 -66 -115 -15 -25 -35 -62 -46 -81 -19 -35 -108 -191 -127 -222 -5 -9 -31
-54 -58 -100 -26 -46 -52 -90 -57 -98 -43 -66 -78 -140 -81 -165 -4 -51 0 -67
14 -59 9 6 9 4 -1 -8 -11 -14 -10 -17 8 -23 12 -4 19 -12 17 -18 -5 -15 12
-49 21 -43 4 2 7 -15 7 -38 -1 -37 2 -42 17 -38 17 4 17 5 2 17 -14 9 -14 14
-4 20 8 5 11 4 7 -2 -4 -6 1 -14 11 -18 16 -6 16 -7 -1 -20 -18 -13 -18 -14 4
-17 14 -2 23 -11 25 -25 3 -17 0 -21 -14 -16 -14 5 -15 3 -5 -7 10 -11 15 -11
29 1 10 8 15 9 11 2 -4 -6 -3 -14 3 -18 5 -3 10 -11 10 -17 0 -6 -7 -5 -17 3
-15 11 -16 11 -6 0 6 -7 10 -19 9 -25 -2 -6 -1 -8 1 -3 3 4 12 7 21 7 15 0 15
-2 2 -10 -13 -8 -12 -10 3 -10 10 0 15 -5 12 -10 -4 -6 -11 -8 -16 -5 -5 3 -6
-1 -2 -10 4 -13 7 -14 14 -3 7 11 10 10 21 -1 11 -12 10 -13 -2 -7 -8 4 -6 0
5 -10 20 -16 20 -16 -2 -11 -14 3 -20 1 -17 -8 3 -7 16 -11 30 -9 13 1 22 -1
19 -6 -3 -4 7 -27 22 -50 16 -23 27 -45 26 -49 -1 -3 4 -13 12 -21 7 -8 16
-25 20 -38 4 -13 11 -20 18 -16 7 4 9 4 5 0 -4 -5 4 -26 18 -48 14 -22 23 -46
20 -53 -3 -10 0 -12 11 -8 10 4 14 2 10 -4 -4 -6 0 -14 8 -17 12 -4 13 -10 5
-25 -14 -28 -12 -38 3 -16 11 14 16 15 22 5 5 -9 4 -11 -3 -6 -7 4 -12 2 -12
-3 0 -6 4 -11 8 -11 5 0 15 -11 22 -25 11 -20 11 -27 0 -40 -11 -13 -11 -16 0
-13 8 2 14 -1 15 -7 0 -5 6 -19 14 -30 9 -15 11 -16 7 -2 -3 9 -1 17 4 17 6 0
10 -9 10 -21 0 -11 5 -17 10 -14 5 3 10 -1 10 -10 0 -13 -4 -14 -22 -4 -18 9
-20 9 -12 0 6 -7 20 -14 30 -15 12 -2 20 -12 22 -29 3 -23 8 -27 36 -27 17 0
38 -6 45 -12 11 -11 13 -11 7 0 -4 6 -2 12 3 12 6 0 11 -4 11 -10 0 -5 5 -10
11 -10 5 0 7 5 4 10 -3 6 -1 10 4 10 6 0 11 -3 11 -8 0 -4 9 -13 20 -20 24
-15 26 -9 4 12 -14 15 -14 16 0 16 9 0 16 -6 16 -12 0 -9 4 -8 11 2 9 12 10
11 6 -6 -2 -12 1 -21 8 -21 7 0 10 8 8 17 -4 13 2 18 21 18 14 0 26 -6 26 -12
0 -8 2 -8 8 0 8 12 112 15 112 4 0 -4 9 -10 21 -13 13 -4 18 -10 13 -18 -5 -8
-3 -10 6 -4 10 6 8 12 -9 26 -21 17 -21 18 -1 16 11 -1 20 -5 20 -9 0 -4 7 -8
15 -8 8 0 15 5 15 10 0 18 30 11 31 -7 0 -15 2 -15 7 -3 8 17 32 25 32 11 0
-5 7 -12 16 -15 13 -5 14 -3 6 6 -8 10 -5 13 13 14 14 1 27 -6 34 -20 11 -21
11 -21 5 2 -3 12 -1 22 5 22 6 0 11 -4 11 -8 0 -5 12 -14 28 -21 l27 -12 -24
19 c-23 18 -18 19 252 19 239 0 279 2 301 16 18 12 27 14 32 5 5 -7 3 -8 -6
-3 -9 5 -11 4 -6 -4 4 -6 4 -11 -1 -10 -23 4 -31 -4 -29 -30 1 -33 11 -31 11
2 0 12 6 23 13 23 6 1 15 3 20 4 4 1 11 2 16 1 5 -1 5 4 -1 11 -12 16 -13 49
-1 42 5 -3 6 -9 3 -14 -3 -5 0 -12 7 -16 7 -4 10 -4 6 1 -4 4 -2 15 5 23 10
13 9 14 -2 7 -11 -6 -13 -4 -8 9 4 10 7 20 7 22 0 3 5 2 10 -1 6 -3 10 -1 10
4 0 6 -6 11 -12 11 -10 0 -10 2 -1 8 6 4 17 20 23 36 9 25 12 26 27 15 15 -13
15 -12 3 11 -13 24 -12 24 5 10 17 -14 18 -14 6 9 -11 19 -11 22 0 16 9 -6 11
-4 6 7 -7 21 3 31 19 17 8 -7 14 -6 20 2 4 7 3 9 -3 6 -6 -4 -14 0 -17 9 -4
12 -1 14 13 9 11 -3 23 0 27 6 4 8 3 9 -4 5 -20 -12 -33 3 -19 24 8 13 18 18
32 14 14 -4 16 -3 7 4 -18 12 -12 42 13 67 11 11 21 27 23 35 2 8 8 20 14 25
7 7 8 2 4 -15 -6 -20 -5 -22 4 -8 5 9 12 31 14 49 2 18 13 41 25 50 22 18 29
35 10 23 -6 -3 -3 6 6 20 10 15 24 25 31 22 8 -3 11 0 7 9 -3 8 -10 12 -17 8
-14 -8 25 40 42 50 16 10 16 30 0 21 -10 -5 -10 -4 -1 6 10 10 15 11 27 1 11
-9 16 -9 22 0 4 8 3 9 -4 5 -7 -4 -12 -3 -12 3 0 5 3 11 8 14 4 2 1 2 -5 1
-16 -4 -16 1 -3 27 6 10 17 19 25 19 8 0 15 5 15 11 0 5 -6 7 -12 4 -7 -4 -5
0 5 8 19 16 24 32 5 21 -6 -4 1 10 17 32 16 21 31 41 33 44 2 2 7 -2 12 -10 6
-8 10 -10 10 -5 0 6 -4 16 -9 24 -8 13 -3 26 25 69 1 2 13 -2 26 -8 l23 -11
-24 19 c-18 14 -21 21 -11 27 9 6 11 4 5 -5 -5 -9 -4 -11 4 -6 7 5 9 16 5 28
-5 16 -3 19 7 12 11 -6 12 -5 2 8 -7 8 -10 18 -6 21 7 8 -7 38 -46 102 -49 80
-211 357 -211 360 0 2 -15 30 -34 62 -18 32 -45 78 -58 103 -14 25 -48 85 -77
133 -28 49 -51 93 -51 98 0 5 -4 9 -10 9 -5 0 -10 5 -10 10 0 6 -16 35 -35 65
-23 37 -43 57 -62 62 -15 4 -179 6 -363 4 -184 -1 -346 -1 -360 -1 -179 8
-386 4 -414 -8z m354 -467 c8 -5 11 -4 7 2 -4 6 14 9 44 9 35 0 48 -4 45 -13
-3 -7 0 -15 6 -19 6 -4 8 -3 4 4 -12 20 14 24 162 24 181 0 172 1 172 -17 0
-8 4 -15 10 -15 5 0 7 7 4 15 -9 21 9 19 23 -4 6 -10 21 -21 32 -24 13 -3 19
-1 15 5 -4 6 -1 9 7 6 8 -3 14 -9 14 -14 1 -5 6 -19 13 -30 6 -12 8 -25 4 -29
-4 -5 -1 -5 6 -1 7 4 12 2 12 -5 0 -9 3 -9 14 0 11 9 16 9 22 0 4 -8 3 -9 -4
-5 -7 4 -12 1 -12 -8 0 -9 7 -16 16 -16 8 0 20 -13 25 -30 6 -16 15 -30 21
-30 5 0 6 -4 3 -10 -3 -5 -2 -10 3 -10 9 0 36 -53 32 -65 -1 -4 6 -12 15 -19
16 -11 16 -13 0 -26 -24 -20 -973 -19 -986 1 -12 20 -11 31 3 23 7 -5 9 -2 6
8 -4 8 -2 21 4 29 8 11 9 11 5 -3 -6 -18 1 -30 14 -22 5 2 4 15 -1 29 -8 20
-6 23 11 20 11 -2 17 0 14 5 -3 5 0 10 7 13 7 2 5 3 -4 2 -10 -2 -18 1 -18 6
0 5 8 9 18 10 9 0 12 3 5 5 -8 4 -7 11 5 25 9 11 17 23 16 27 0 4 6 13 13 20
7 8 11 17 8 21 -2 5 4 16 14 25 18 17 20 16 30 -1 6 -10 11 -13 11 -6 0 6 -7
19 -16 27 -8 9 -12 16 -7 16 5 0 14 -5 20 -11 9 -9 10 -6 6 10 -4 15 -2 20 8
16 8 -2 24 3 37 13 22 17 22 18 2 19 -11 1 -18 -2 -15 -7 3 -5 1 -11 -4 -14
-5 -4 -13 -1 -17 5 -3 6 -1 15 6 19 15 10 71 7 90 -5z m525 -4 c6 -1 4 -5 -4
-10 -15 -10 -41 -4 -41 9 0 5 8 7 18 5 9 -2 22 -4 27 -4z m41 -36 c-3 -8 -1
-15 4 -15 6 0 10 -7 10 -16 0 -9 5 -12 12 -8 7 5 8 3 3 -6 -6 -10 -12 -7 -25
11 -16 20 -17 49 -3 49 3 0 3 -7 -1 -15z m-549 -694 c7 -1 10 -10 8 -22 -3
-12 -1 -18 3 -15 4 4 8 12 8 17 1 5 2 12 3 17 0 4 45 6 99 5 140 -2 131 0 127
-24 -3 -12 -1 -18 3 -15 4 4 8 12 8 17 1 5 2 12 3 17 1 9 241 7 265 -3 12 -5
17 -5 13 1 -3 6 15 10 43 9 27 0 48 -4 47 -9 -1 -5 4 -11 11 -13 7 -3 10 1 7
9 -3 9 3 13 19 13 13 0 22 -3 20 -7 -2 -3 1 -8 7 -10 6 -2 9 -13 6 -23 -5 -19
-5 -19 -12 3 -4 12 -11 22 -16 22 -6 0 -3 -12 4 -26 12 -23 12 -31 -1 -56 -11
-24 -17 -27 -24 -17 -7 10 -8 9 -4 -5 4 -12 -3 -33 -19 -57 -14 -21 -25 -41
-25 -43 0 -20 -85 -135 -103 -140 -29 -8 -565 -8 -594 0 -23 6 -39 30 -101
144 -20 36 -40 68 -46 72 -7 5 -7 8 -1 8 6 0 6 3 -1 8 -5 4 -18 24 -27 45 -10
20 -22 37 -28 37 -5 0 -3 10 5 23 14 21 20 22 148 20 73 -1 138 -2 145 -2z
m-474 -676 c4 -8 1 -17 -6 -21 -7 -4 -9 -4 -5 1 4 4 3 14 -3 22 -7 8 -8 13 -1
13 5 0 12 -7 15 -15z"/>
<path d="M1659 2073 c-13 -16 -12 -17 4 -4 9 7 17 15 17 17 0 8 -8 3 -21 -13z"/>
<path d="M1736 2078 c3 -4 12 -8 20 -8 8 0 14 4 14 8 0 4 -9 8 -19 8 -11 0
-17 -4 -15 -8z"/>
<path d="M1884 2083 c4 -4 16 -8 28 -10 28 -4 18 6 -12 12 -12 2 -20 1 -16 -2z"/>
<path d="M1966 2078 c3 -4 9 -8 15 -8 5 0 9 4 9 8 0 5 -7 9 -15 9 -8 0 -12 -4
-9 -9z"/>
<path d="M2044 2082 c4 -3 14 -7 22 -8 9 -1 13 0 10 4 -4 3 -14 7 -22 8 -9 1
-13 0 -10 -4z"/>
<path d="M2096 2082 c-3 -5 1 -9 9 -9 8 0 12 4 9 9 -3 4 -7 8 -9 8 -2 0 -6 -4
-9 -8z"/>
<path d="M1714 2066 c1 -8 5 -18 8 -22 4 -3 5 1 4 10 -1 8 -5 18 -8 22 -4 3
-5 -1 -4 -10z"/>
<path d="M1680 2060 c-9 -6 -10 -10 -3 -10 6 0 15 5 18 10 8 12 4 12 -15 0z"/>
<path d="M2210 2020 c0 -5 5 -10 11 -10 5 0 7 5 4 10 -3 6 -8 10 -11 10 -2 0
-4 -4 -4 -10z"/>
<path d="M1542 1994 c-7 -8 -8 -14 -3 -14 10 0 25 19 20 25 -2 1 -10 -3 -17
-11z"/>
<path d="M1527 1956 c-4 -10 -1 -13 9 -9 15 6 19 23 5 23 -5 0 -11 -7 -14 -14z"/>
<path d="M2280 1930 c6 -11 13 -20 16 -20 2 0 0 9 -6 20 -6 11 -13 20 -16 20
-2 0 0 -9 6 -20z"/>
<path d="M1526 1918 c3 -5 10 -6 15 -3 13 9 11 12 -6 12 -8 0 -12 -4 -9 -9z"/>
<path d="M1503 1905 c0 -8 4 -12 9 -9 5 3 6 10 3 15 -9 13 -12 11 -12 -6z"/>
<path d="M2310 1899 c0 -5 5 -7 10 -4 6 3 10 8 10 11 0 2 -4 4 -10 4 -5 0 -10
-5 -10 -11z"/>
<path d="M2353 1849 c3 -9 0 -23 -6 -30 -10 -11 -9 -11 4 -1 9 6 20 8 25 4 4
-4 2 2 -6 13 -21 30 -24 32 -17 14z"/>
<path d="M1473 1815 c0 -8 4 -12 9 -9 5 3 6 10 3 15 -9 13 -12 11 -12 -6z"/>
<path d="M2365 1800 c3 -5 8 -10 11 -10 2 0 4 5 4 10 0 6 -5 10 -11 10 -5 0
-7 -4 -4 -10z"/>
<path d="M1426 1334 c-3 -7 3 -18 12 -25 14 -11 15 -11 5 1 -10 10 -9 16 4 25
14 11 14 12 0 12 -9 0 -18 -6 -21 -13z"/>
<path d="M1475 1340 c3 -6 1 -10 -6 -10 -7 0 -10 -3 -6 -6 3 -3 13 -2 22 4 16
8 16 9 1 15 -10 4 -15 3 -11 -3z"/>
<path d="M1610 1347 c0 -2 14 -13 30 -25 35 -26 40 -22 8 8 -19 18 -38 26 -38
17z"/>
<path d="M1670 1339 c0 -5 5 -7 12 -3 8 5 9 1 4 -12 -5 -14 -4 -16 5 -7 6 6 8
16 5 22 -9 14 -26 14 -26 0z"/>
<path d="M1740 1340 c0 -5 5 -10 11 -10 5 0 7 5 4 10 -3 6 -8 10 -11 10 -2 0
-4 -4 -4 -10z"/>
<path d="M1850 1347 c0 -2 14 -13 30 -25 35 -26 40 -22 8 8 -19 18 -38 26 -38
17z"/>
<path d="M1910 1339 c0 -5 5 -7 12 -3 8 5 9 1 4 -12 -5 -14 -4 -16 5 -7 6 6 8
16 5 22 -9 14 -26 14 -26 0z"/>
<path d="M1980 1340 c0 -5 5 -10 11 -10 5 0 7 5 4 10 -3 6 -8 10 -11 10 -2 0
-4 -4 -4 -10z"/>
<path d="M2090 1347 c0 -2 14 -13 30 -25 35 -26 40 -22 8 8 -19 18 -38 26 -38
17z"/>
<path d="M2151 1345 c0 -5 7 -19 16 -30 13 -16 15 -17 10 -2 -4 9 -2 17 3 17
6 0 10 5 10 11 0 8 -4 8 -14 0 -11 -9 -15 -9 -19 1 -3 7 -6 9 -6 3z"/>
<path d="M2266 1339 c2 -4 -2 -10 -8 -12 -8 -4 -9 -6 -2 -6 6 -1 17 5 23 12 8
10 7 14 -4 14 -8 0 -12 -4 -9 -8z"/>
<path d="M2303 1344 c3 -4 -4 -15 -16 -26 l-22 -19 26 15 c14 9 30 13 34 9 5
-5 3 0 -4 10 -7 9 -16 17 -19 17 -3 0 -3 -3 1 -6z"/>
<path d="M1550 1326 c0 -8 4 -17 9 -20 5 -4 7 3 4 14 -6 23 -13 26 -13 6z"/>
<path d="M1587 1327 c-3 -8 1 -14 9 -14 16 0 19 13 5 21 -5 3 -11 0 -14 -7z"/>
<path d="M1790 1326 c0 -8 4 -17 9 -20 5 -4 7 3 4 14 -6 23 -13 26 -13 6z"/>
<path d="M1827 1327 c-3 -8 1 -14 9 -14 16 0 19 13 5 21 -5 3 -11 0 -14 -7z"/>
<path d="M2030 1326 c0 -8 4 -17 9 -20 5 -4 7 3 4 14 -6 23 -13 26 -13 6z"/>
<path d="M2067 1327 c-3 -8 1 -14 9 -14 16 0 19 13 5 21 -5 3 -11 0 -14 -7z"/>
<path d="M2210 1322 c0 -5 7 -9 15 -9 8 0 12 4 9 9 -3 4 -9 8 -15 8 -5 0 -9
-4 -9 -8z"/>
<path d="M1510 1306 c0 -2 7 -7 16 -10 8 -3 12 -2 9 4 -6 10 -25 14 -25 6z"/>
<path d="M1750 1306 c0 -2 7 -7 16 -10 8 -3 12 -2 9 4 -6 10 -25 14 -25 6z"/>
<path d="M1990 1306 c0 -2 7 -7 16 -10 8 -3 12 -2 9 4 -6 10 -25 14 -25 6z"/>
<path d="M4887 2511 c-4 -17 -3 -21 5 -13 5 5 8 16 6 23 -3 8 -7 3 -11 -10z"/>
<path d="M4890 2480 c-9 -6 -10 -10 -3 -10 6 0 15 5 18 10 8 12 4 12 -15 0z"/>
<path d="M3304 2441 c4 -5 0 -11 -6 -14 -7 -2 -2 -4 12 -4 14 0 34 -3 45 -7
l20 -8 -20 13 c-11 7 -22 15 -25 18 -9 10 -32 12 -26 2z"/>
<path d="M3450 2440 c0 -5 5 -10 11 -10 5 0 7 5 4 10 -3 6 -8 10 -11 10 -2 0
-4 -4 -4 -10z"/>
<path d="M3552 2431 c7 -9 13 -18 15 -20 1 -2 1 5 0 16 0 11 -7 20 -14 20 -10
0 -10 -4 -1 -16z"/>
<path d="M3620 2440 c8 -5 20 -10 25 -10 6 0 3 5 -5 10 -8 5 -19 10 -25 10 -5
0 -3 -5 5 -10z"/>
<path d="M3795 2440 c-3 -5 -1 -10 4 -10 6 0 11 5 11 10 0 6 -2 10 -4 10 -3 0
-8 -4 -11 -10z"/>
<path d="M3881 2434 c0 -11 3 -14 6 -6 3 7 2 16 -1 19 -3 4 -6 -2 -5 -13z"/>
<path d="M3930 2440 c0 -5 5 -10 11 -10 5 0 7 5 4 10 -3 6 -8 10 -11 10 -2 0
-4 -4 -4 -10z"/>
<path d="M4032 2431 c7 -9 13 -18 15 -20 1 -2 1 5 0 16 0 11 -7 20 -14 20 -10
0 -10 -4 -1 -16z"/>
<path d="M4100 2440 c8 -5 20 -10 25 -10 6 0 3 5 -5 10 -8 5 -19 10 -25 10 -5
0 -3 -5 5 -10z"/>
<path d="M4860 2445 c0 -7 30 -13 34 -7 3 4 -4 9 -15 9 -10 1 -19 0 -19 -2z"/>
<path d="M3588 2433 c6 -2 10 -8 8 -12 -3 -4 4 -7 15 -7 19 0 19 1 3 13 -10 7
-23 13 -28 12 -6 0 -5 -3 2 -6z"/>
<path d="M4068 2433 c6 -2 10 -8 8 -12 -3 -4 4 -7 15 -7 19 0 19 1 3 13 -10 7
-23 13 -28 12 -6 0 -5 -3 2 -6z"/>
<path d="M3519 2413 c-12 -16 -12 -17 2 -6 9 7 20 9 24 5 5 -4 5 -1 1 6 -9 16
-11 15 -27 -5z"/>
<path d="M3695 2420 c-3 -5 -1 -10 4 -10 6 0 11 5 11 10 0 6 -2 10 -4 10 -3 0
-8 -4 -11 -10z"/>
<path d="M3760 2420 c-9 -6 -10 -10 -3 -10 6 0 15 5 18 10 8 12 4 12 -15 0z"/>
<path d="M3816 2422 c-3 -4 4 -9 15 -9 23 -2 25 3 4 10 -8 4 -16 3 -19 -1z"/>
<path d="M3999 2413 c-12 -16 -12 -17 2 -6 9 7 20 9 24 5 5 -4 5 -1 1 6 -9 16
-11 15 -27 -5z"/>
<path d="M4175 2420 c-3 -5 -1 -10 4 -10 6 0 11 5 11 10 0 6 -2 10 -4 10 -3 0
-8 -4 -11 -10z"/>
<path d="M4240 2420 c-9 -6 -10 -10 -3 -10 6 0 15 5 18 10 8 12 4 12 -15 0z"/>
<path d="M4784 2338 c-3 -4 5 -5 17 -3 30 6 36 14 9 12 -12 -1 -24 -5 -26 -9z"/>
<path d="M4717 2193 c-10 -9 -9 -23 1 -23 5 0 9 7 9 15 0 17 -1 18 -10 8z"/>
<path d="M4682 2143 c-20 -8 -34 -41 -20 -49 6 -4 8 -3 4 4 -3 6 4 20 16 31
22 21 22 23 0 14z"/>
<path d="M4650 2051 c0 -6 4 -13 10 -16 6 -3 7 1 4 9 -7 18 -14 21 -14 7z"/>
<path d="M4586 1993 c-6 -14 -5 -15 5 -6 7 7 10 15 7 18 -3 3 -9 -2 -12 -12z"/>
<path d="M4595 1969 c-4 -6 -5 -12 -2 -15 2 -3 7 2 10 11 7 17 1 20 -8 4z"/>
<path d="M4569 1944 c6 -12 7 -24 4 -28 -3 -3 -1 -6 5 -6 16 0 15 12 -4 36
-15 18 -15 18 -5 -2z"/>
<path d="M4517 1876 c-3 -8 0 -17 7 -19 10 -4 12 1 9 14 -6 23 -9 24 -16 5z"/>
<path d="M4548 1883 c7 -3 16 -2 19 1 4 3 -2 6 -13 5 -11 0 -14 -3 -6 -6z"/>
<path d="M4480 1760 c-9 -6 -10 -10 -3 -10 6 0 15 5 18 10 8 12 4 12 -15 0z"/>
<path d="M4440 1741 c-7 -13 -7 -22 0 -26 11 -7 11 -8 14 23 3 27 0 28 -14 3z"/>
<path d="M4420 1700 c0 -6 7 -10 15 -10 8 0 15 2 15 4 0 2 -7 6 -15 10 -8 3
-15 1 -15 -4z"/>
<path d="M4387 1656 c-16 -12 -16 -14 -2 -20 9 -3 13 -2 10 3 -3 6 3 14 12 20
10 6 14 10 8 10 -5 0 -18 -6 -28 -13z"/>
<path d="M3283 1633 c-15 -5 -17 -23 -4 -23 5 0 11 7 15 15 3 8 4 15 3 14 -1
0 -8 -3 -14 -6z"/>
<path d="M4360 1626 c0 -2 7 -7 16 -10 8 -3 12 -2 9 4 -6 10 -25 14 -25 6z"/>
<path d="M3380 1611 c0 -6 4 -13 10 -16 6 -3 7 1 4 9 -7 18 -14 21 -14 7z"/>
<path d="M4180 1611 c0 -6 4 -13 10 -16 6 -3 7 1 4 9 -7 18 -14 21 -14 7z"/>
<path d="M4300 1611 c0 -6 4 -13 10 -16 6 -3 7 1 4 9 -7 18 -14 21 -14 7z"/>
<path d="M3420 1599 c0 -5 5 -7 10 -4 6 3 10 8 10 11 0 2 -4 4 -10 4 -5 0 -10
-5 -10 -11z"/>
<path d="M3480 1599 c0 -5 5 -7 10 -4 6 3 10 8 10 11 0 2 -4 4 -10 4 -5 0 -10
-5 -10 -11z"/>
<path d="M3234 1482 c-6 -4 -17 -22 -25 -39 -8 -18 -17 -33 -20 -33 -4 0 -9
-8 -13 -17 -3 -10 -18 -39 -33 -64 -116 -192 -143 -238 -143 -247 0 -6 -4 -12
-8 -14 -4 -1 -25 -34 -47 -73 -21 -38 -43 -73 -49 -77 -6 -4 -7 -8 -2 -8 5 0
-1 -12 -15 -27 -13 -14 -18 -23 -11 -19 11 7 11 4 0 -13 -7 -12 -16 -21 -19
-21 -4 0 -10 -8 -13 -17 -4 -10 -15 -33 -25 -52 -19 -37 -21 -32 63 -176 l24
-40 110 -2 109 -1 23 46 c13 26 34 64 47 84 13 21 23 44 23 52 0 8 -23 52 -50
99 l-51 84 -60 1 c-67 0 -95 11 -33 13 103 3 95 -1 136 69 21 36 41 72 45 80
4 8 10 17 14 20 8 6 0 26 -40 93 -13 20 -18 37 -13 37 10 0 49 -57 64 -93 7
-16 20 -17 115 -15 l107 3 48 80 c26 44 47 88 48 97 0 9 -9 33 -21 52 -11 20
-19 41 -17 48 3 7 11 -2 19 -20 7 -18 17 -32 20 -32 4 0 9 -9 12 -20 5 -18 14
-20 112 -20 115 0 122 3 145 58 5 12 15 22 21 22 6 0 -1 -20 -15 -44 l-25 -44
50 -83 c27 -46 53 -87 57 -91 4 -4 47 -8 95 -9 111 -2 105 -11 -9 -13 l-85 -2
-28 -44 c-15 -25 -39 -65 -53 -90 -27 -49 -28 -43 20 -123 29 -49 38 -85 17
-67 -8 7 -12 16 -9 21 3 5 0 9 -5 9 -6 0 -11 5 -11 11 0 6 -13 30 -30 53 l-29
43 -98 -2 c-54 -1 -101 -3 -104 -4 -11 -2 -99 -160 -99 -177 0 -8 15 -42 34
-73 38 -66 54 -107 37 -97 -6 4 -11 12 -11 17 0 5 -5 15 -11 22 -5 7 -25 37
-43 67 l-32 55 -105 1 -106 2 -24 -44 c-13 -24 -27 -44 -31 -44 -5 0 -8 -6 -8
-14 0 -7 -10 -25 -21 -40 -12 -15 -19 -30 -15 -33 5 -5 83 -6 491 -2 127 1
154 12 197 87 52 91 59 105 54 110 -3 2 3 12 13 21 11 9 30 36 44 61 13 25 69
122 122 215 54 94 118 206 143 250 24 44 50 87 56 95 7 8 24 35 38 61 l24 45
-90 -1 c-50 0 -96 -4 -103 -8 -6 -4 -15 -3 -18 3 -5 8 -11 7 -21 -1 -8 -6 -14
-7 -14 -2 0 11 -50 10 -68 -1 -7 -4 -12 -3 -12 2 0 11 -51 9 -69 -2 -6 -4 -11
-1 -11 6 0 9 -3 9 -10 -2 -5 -8 -10 -10 -10 -4 0 13 -448 14 -467 1 -7 -5 -13
-4 -13 1 0 10 -30 9 -48 -2 -6 -4 -12 -3 -12 2 0 10 -66 10 -76 -1 -4 -4 -12
-3 -18 3 -7 5 -16 6 -22 2z m634 -44 c-7 -13 -12 -27 -13 -32 0 -5 -7 -11 -15
-13 -13 -4 -13 -3 0 6 8 6 12 11 7 11 -8 0 22 50 30 50 2 0 -2 -10 -9 -22z
m302 -40 c0 -5 -5 -8 -11 -8 -5 0 -8 4 -4 9 3 5 1 12 -5 16 -5 3 -15 16 -21
28 -7 15 -3 12 15 -8 14 -16 25 -33 26 -37z m-682 30 c10 -12 10 -18 1 -24 -8
-4 -9 -3 -5 4 4 7 2 12 -3 12 -6 0 -11 8 -11 17 0 9 1 14 3 12 1 -2 8 -11 15
-21z m706 -73 c9 -14 12 -25 6 -25 -5 0 -10 4 -10 9 0 5 -7 17 -16 25 -8 9
-11 16 -6 16 5 0 17 -11 26 -25z m-1034 -120 c0 -15 -18 -1 -29 23 l-13 27 21
-22 c12 -12 21 -25 21 -28z m-190 -321 c0 -8 -5 -12 -10 -9 -6 4 -8 11 -5 16
9 14 15 11 15 -7z m-36 -2 c3 -5 -1 -9 -9 -9 -8 0 -12 4 -9 9 3 4 7 8 9 8 2 0
6 -4 9 -8z"/>
<path d="M758 1453 c10 -4 10 -8 0 -21 -12 -15 -11 -16 4 -3 19 14 15 32 -5
30 -8 0 -8 -2 1 -6z"/>
<path d="M3024 1432 c-10 -15 -8 -18 10 -19 11 -1 15 1 8 4 -10 4 -10 8 -1 19
6 8 7 14 3 14 -5 0 -14 -8 -20 -18z"/>
<path d="M770 1416 c0 -2 8 -10 18 -17 15 -13 16 -12 3 4 -13 16 -21 21 -21
13z"/>
<path d="M2977 1347 c-12 -19 -13 -24 -2 -24 8 0 14 3 13 6 -2 21 4 31 14 25
7 -4 8 -3 4 4 -10 16 -11 15 -29 -11z"/>
<path d="M3572 1281 c-6 -3 -33 -44 -60 -91 l-51 -85 32 -55 c17 -30 41 -71
53 -92 l23 -36 103 0 104 0 52 91 53 90 -47 81 c-25 45 -50 85 -55 90 -9 10
-192 16 -207 7z"/>
<path d="M2869 1150 c-13 -10 -20 -19 -16 -20 5 0 15 7 24 15 8 8 19 12 25 9
7 -4 8 -2 4 4 -9 15 -10 15 -37 -8z"/>
<path d="M3230 1080 c-10 -8 -28 -35 -41 -60 -13 -25 -27 -47 -31 -50 -4 -3
-11 -18 -17 -33 -11 -28 -8 -35 69 -164 l25 -42 104 2 104 2 48 80 c27 44 48
88 49 97 0 10 -22 55 -49 100 l-49 82 -97 1 c-75 1 -102 -3 -115 -15z"/>
<path d="M973 1067 c-2 -17 0 -19 7 -7 9 13 10 13 11 0 1 -8 1 -22 0 -30 -2
-13 0 -13 8 -1 6 10 6 21 0 32 -14 28 -25 30 -26 6z"/>
<path d="M1010 1020 c0 -5 5 -10 11 -10 5 0 7 5 4 10 -3 6 -8 10 -11 10 -2 0
-4 -4 -4 -10z"/>
<path d="M2793 1010 c-1 -11 2 -22 6 -24 4 -3 7 4 6 14 -2 27 -10 33 -12 10z"/>
<path d="M1026 985 c4 -8 11 -15 16 -15 6 0 5 6 -2 15 -7 8 -14 15 -16 15 -2
0 -1 -7 2 -15z"/>
<path d="M1053 920 c1 -11 6 -16 16 -12 10 4 12 1 6 -8 -5 -9 -4 -11 3 -6 15
9 15 9 -7 28 -18 16 -20 15 -18 -2z"/>
<path d="M2719 893 c-12 -16 -12 -17 2 -6 9 7 19 10 22 6 4 -3 7 -1 7 5 0 17
-16 15 -31 -5z"/>
<path d="M1094 858 c1 -28 4 -34 14 -26 9 8 10 13 2 18 -7 4 -11 10 -10 14 1
4 0 12 -3 19 -2 6 -4 -4 -3 -25z"/>
<path d="M2665 810 c-3 -6 1 -7 9 -4 18 7 21 14 7 14 -6 0 -13 -4 -16 -10z"/>
<path d="M1111 807 c2 -1 11 -8 21 -15 12 -10 18 -10 24 -1 4 8 3 9 -4 5 -7
-4 -12 -2 -12 3 0 6 -7 11 -17 11 -9 0 -14 -1 -12 -3z"/>
<path d="M1169 729 c19 -8 21 -12 11 -24 -7 -9 -8 -15 -2 -15 15 0 22 26 9 39
-6 6 -18 11 -26 10 -10 0 -6 -4 8 -10z"/>
<path d="M2770 701 c0 -5 -18 -40 -40 -79 -22 -38 -40 -73 -40 -78 0 -8 50 -9
177 -5 21 1 20 3 -13 54 -19 28 -37 62 -40 75 -4 12 -10 22 -16 22 -5 0 -6 5
-3 10 3 6 -1 10 -9 10 -9 0 -16 -4 -16 -9z"/>
<path d="M2586 643 c-6 -14 -5 -15 5 -6 7 7 10 15 7 18 -3 3 -9 -2 -12 -12z"/>
<path d="M2576 593 c-6 -14 -5 -15 5 -6 7 7 10 15 7 18 -3 3 -9 -2 -12 -12z"/>
<path d="M1265 561 c-3 -5 -2 -12 3 -15 5 -3 9 1 9 9 0 17 -3 19 -12 6z"/>
<path d="M1517 507 c-3 -8 1 -14 8 -14 7 0 11 6 8 14 -3 7 -6 13 -8 13 -2 0
-5 -6 -8 -13z"/>
<path d="M1557 507 c-3 -8 1 -14 8 -14 7 0 11 6 8 14 -3 7 -6 13 -8 13 -2 0
-5 -6 -8 -13z"/>
<path d="M1615 510 c-3 -5 -1 -10 4 -10 6 0 11 5 11 10 0 6 -2 10 -4 10 -3 0
-8 -4 -11 -10z"/>
<path d="M1957 503 c3 -7 6 -13 8 -13 2 0 5 6 8 13 3 8 -1 14 -8 14 -7 0 -11
-6 -8 -14z"/>
<path d="M2021 516 c2 -2 15 -9 29 -15 24 -11 24 -11 6 3 -16 13 -49 24 -35
12z"/>
<path d="M2083 509 c9 -6 14 -15 11 -21 -4 -7 -2 -8 5 -4 14 9 -3 36 -23 36
-6 0 -3 -5 7 -11z"/>
<path d="M2118 513 c7 -3 16 -2 19 1 4 3 -2 6 -13 5 -11 0 -14 -3 -6 -6z"/>
<path d="M2155 509 c-4 -6 -5 -12 -2 -15 2 -3 7 2 10 11 7 17 1 20 -8 4z"/>
<path d="M2181 516 c2 -2 15 -9 29 -15 24 -11 24 -11 6 3 -16 13 -49 24 -35
12z"/>
<path d="M2267 508 c-12 -10 -14 -17 -6 -28 9 -13 10 -13 6 0 -2 8 5 20 17 27
12 7 16 12 10 13 -5 0 -18 -6 -27 -12z"/>
<path d="M2341 516 c2 -2 15 -9 29 -15 24 -11 24 -11 6 3 -16 13 -49 24 -35
12z"/>
<path d="M2403 509 c9 -6 14 -15 11 -21 -4 -7 -2 -8 5 -4 14 9 -3 36 -23 36
-6 0 -3 -5 7 -11z"/>
<path d="M2438 513 c7 -3 16 -2 19 1 4 3 -2 6 -13 5 -11 0 -14 -3 -6 -6z"/>
<path d="M1750 501 c0 -6 4 -13 10 -16 6 -3 7 1 4 9 -7 18 -14 21 -14 7z"/>
<path d="M1790 500 c0 -5 5 -10 11 -10 5 0 7 5 4 10 -3 6 -8 10 -11 10 -2 0
-4 -4 -4 -10z"/>
<path d="M1853 495 c0 -8 4 -12 9 -9 5 3 6 10 3 15 -9 13 -12 11 -12 -6z"/>
<path d="M2016 487 c3 -10 9 -15 12 -12 3 3 0 11 -7 18 -10 9 -11 8 -5 -6z"/>
<path d="M2336 487 c3 -10 9 -15 12 -12 3 3 0 11 -7 18 -10 9 -11 8 -5 -6z"/>
</g>
</svg>
